<svg width="69" height="64" viewBox="0 0 69 64" fill="none" xmlns="http://www.w3.org/2000/svg">
<path d="M44.5 0C53.6127 0 61 7.3873 61 16.5C61 23.4165 56.7436 29.337 50.708 31.79L50.3223 20.5859C50.3223 19.9414 50.2084 19.0664 49.9082 18.1641C49.6687 16.9565 48.9743 15.9579 48.041 15.2764C47.4898 14.8092 46.8173 14.4332 46 14.21V9.24219C47.2478 9.62142 47.9998 10.6861 48 11.6904C48 11.9851 48.1054 12.2682 48.293 12.4766C48.4805 12.6849 48.7348 12.8018 49 12.8018C49.2652 12.8018 49.5195 12.6849 49.707 12.4766C49.8946 12.2682 50 11.9851 50 11.6904C49.9998 9.22251 48.1732 7.40818 46 6.97559V6.50586C46 6.21117 45.8946 5.9281 45.707 5.71973C45.5195 5.51146 45.2651 5.39453 45 5.39453C44.7349 5.39453 44.4805 5.51146 44.293 5.71973C44.1054 5.9281 44 6.21117 44 6.50586V6.97559C41.8268 7.40818 40.0002 9.22251 40 11.6904C40 13.1242 40.6168 14.3376 41.5596 15.1875C40.2033 16.4814 39.5956 18.5424 39.4492 19.8604C39.1035 22.11 38.5127 26.3402 38.2031 31.7539C32.2146 29.2791 28 23.3825 28 16.5C28 7.3873 35.3873 0 44.5 0ZM44 14.0303C43.9237 14.0388 43.8485 14.0483 43.7744 14.0605C42.6619 13.6291 42 12.6328 42 11.6904C42.0002 10.6861 42.7522 9.62142 44 9.24219V14.0303Z" fill="#FDCA1C"/>
<path d="M48.5 20.9316C48.5 19.5984 47.8 16.832 45 16.432C42.2002 16.032 41.1668 18.9319 41 20.432C40.6667 22.5987 40 27.4316 40 33.4316C40 39.4316 40.6667 43.265 41 44.9316L44.5 63.9316H61C62.1667 60.765 65.1 53.3316 67.5 48.9316C69.9 44.5316 68.8333 39.765 68 37.9316L65.5 30.9316C64.8333 28.9316 63.4 24.7316 63 23.9316C62.6 23.1316 62.1667 23.265 62 23.4316C61 24.9316 58.9 28.0316 58.5 28.4316C58.1 28.8316 58.6667 30.265 59 30.9316C59.6667 32.0983 60.5 33.3945 60 35.4316C59.7335 36.5174 60.1667 36.5612 60.5 36.8945L63.2979 39.0806C63.5306 39.1809 63.765 39.2973 64 39.4316L63.2979 39.0806C62.5 38.7368 59 37.9316 57.5 39.4316L53.5 42.8945V43.4316C50.7 42.2316 49 38.4316 49 35.4316L48.5 20.9316Z" fill="#D7CEC1"/>
<path d="M15.125 0.394531C19.9032 0.394531 24.4895 2.61565 27.4873 6.09961C25.9014 9.00987 25 12.3469 25 15.8945C25 24.5752 30.3962 31.9931 38.0166 34.9824C38.0631 37.3415 38.2104 39.3181 38.3867 40.9121C36.2465 42.9076 33.9397 45.0027 31.4873 47.2266L27.5 50.8574L23.5127 47.2266C9.35027 34.3841 0 25.887 0 15.5195C0 7.02203 6.655 0.394531 15.125 0.394531Z" fill="#6788C8"/>
</svg>
